<svg xmlns="http://www.w3.org/2000/svg" class="ca-diagram ca-aws" width="1208" height="1140" viewBox="0 0 1208 1140" role="img" data-body-top="80" data-body-bottom="1112" data-drawing-bottom="978" aria-label="Event-driven processing on AWS">
<style>.ca-aws{font-family:'Amazon Ember', 'Helvetica Neue', Arial, sans-serif}
.ca-aws .ca-bg{fill:#ffffff}
.ca-aws .ca-title{font-size:18px;font-weight:700;fill:#232F3E}
.ca-aws .ca-subtitle{font-size:13px;fill:#545B64}
.ca-aws .ca-group-label{font-size:12px;font-weight:600;fill:#232F3E}
.ca-aws .ca-badge{font-size:13px;font-weight:700;fill:#ffffff}
.ca-aws .ca-service{font-size:12px;font-weight:600;fill:#232F3E}
.ca-aws .ca-label{font-size:11px;fill:#545B64}
.ca-aws .ca-fidelity{font-size:10px;font-style:italic;fill:#b0084d}
.ca-aws .ca-edge{fill:none;stroke:#232F3E;stroke-width:1.5;stroke-linejoin:round}
.ca-aws .ca-arrow{fill:#232F3E}
.ca-aws .ca-edge-label{font-size:11px;fill:#232F3E;paint-order:stroke;stroke:#ffffff;stroke-width:4;stroke-linejoin:round}
.ca-aws .ca-step circle{fill:#232F3E;stroke:#ffffff;stroke-width:1.5}
.ca-aws .ca-step text{font-size:11px;font-weight:700;fill:#ffffff}
.ca-aws .ca-steps-title{font-size:13px;font-weight:700;fill:#232F3E}
.ca-aws .ca-steps-text{font-size:12px;fill:#232F3E}
.ca-aws .ca-footer{font-size:10px;fill:#879196}
.ca-aws .ca-node-box{fill:transparent;stroke:transparent;stroke-width:1.5}
.ca-aws .ca-group-cloud{fill:none;stroke:#232F3E}
.ca-aws .ca-group-cloud-label{fill:#232F3E;font-weight:600}
.ca-aws .ca-group-region{fill:none;stroke:#00A4A6;stroke-dasharray:6 4}
.ca-aws .ca-group-region-label{fill:#147EBA;font-weight:600}
.ca-aws .ca-group-vpc{fill:none;stroke:#8C4FFF}
.ca-aws .ca-group-vpc-label{fill:#8C4FFF;font-weight:600}
.ca-aws .ca-group-public{fill:#F2F6E8;stroke:none}
.ca-aws .ca-group-public-label{fill:#248814;font-weight:600}
.ca-aws .ca-group-private{fill:#E6F6F7;stroke:none}
.ca-aws .ca-group-private-label{fill:#147EBA;font-weight:600}
.ca-aws .ca-group-generic{fill:none;stroke:#7D8998;stroke-dasharray:6 4}
.ca-aws .ca-group-generic-label{fill:#5A6C86;font-weight:600}</style>
<rect class="ca-bg" width="1208" height="1140"/>
<text class="ca-title" x="24" y="36">Event-driven processing on AWS</text>
<text class="ca-subtitle" x="24" y="56">Uploads and events trigger asynchronous processing through a queue and a workflow, so slow jobs never block users.</text>
<rect class="ca-group ca-group-cloud" x="244" y="104" width="940" height="866" rx="0"/>
<rect x="244" y="104" width="32" height="32" fill="#232F3E"/>
<text class="ca-group-label ca-group-cloud-label" x="284" y="125">AWS Cloud</text>
<rect class="ca-group ca-group-region" x="266" y="146" width="896" height="802" rx="0"/>
<rect x="266" y="146" width="32" height="32" fill="#00A4A6"/>
<text class="ca-group-label ca-group-region-label" x="306" y="167">Mumbai (ap-south-1)</text>
<rect class="ca-group ca-group-generic" x="280" y="188" width="868" height="152" rx="0"/>
<text class="ca-group-label ca-group-generic-label" x="292" y="209">Build and deploy</text>
<rect class="ca-group ca-group-generic" x="280" y="774" width="868" height="152" rx="0"/>
<text class="ca-group-label ca-group-generic-label" x="292" y="795">Shared services</text>
<path class="ca-edge" data-from="producers" data-to="api" d="M127,532 L329,532"/>
<polygon class="ca-arrow" data-from="producers" data-to="api" points="335,532 326,527.5 326,536.5"/>
<path class="ca-edge" data-from="api" data-to="ingest" d="M391,532 L473,532 L473,464 L549,464"/>
<polygon class="ca-arrow" data-from="api" data-to="ingest" points="555,464 546,459.5 546,468.5"/>
<path class="ca-edge" data-from="ingest" data-to="raw" d="M611,469 L695.1,469 L695.1,489 L943.5,489 L943.5,459 L1031,459"/>
<polygon class="ca-arrow" data-from="ingest" data-to="raw" points="1037,459 1028,454.5 1028,463.5"/>
<path class="ca-edge" data-from="ingest" data-to="queue" d="M611,459 L682.6,459 L682.6,396 L811,396"/>
<polygon class="ca-arrow" data-from="ingest" data-to="queue" points="817,396 808,391.5 808,400.5"/>
<path class="ca-edge" data-from="queue" data-to="workflow" d="M845,476 L845,498"/>
<polygon class="ca-arrow" data-from="queue" data-to="workflow" points="845,504 840.5,495 849.5,495"/>
<path class="ca-edge" data-from="workflow" data-to="workers" d="M817,532 L720.3,532 L720.3,595 L617,595"/>
<polygon class="ca-arrow" data-from="workflow" data-to="workers" points="611,595 620,590.5 620,599.5"/>
<path class="ca-edge" data-from="workers" data-to="raw" d="M611,585 L707.7,585 L707.7,489 L955,489 L955,469 L1031,469"/>
<polygon class="ca-arrow" data-from="workers" data-to="raw" points="1037,469 1028,464.5 1028,473.5"/>
<path class="ca-edge" data-from="workers" data-to="state" d="M611,605 L732.9,605 L732.9,625 L966.5,625 L966.5,600 L1031,600"/>
<polygon class="ca-arrow" data-from="workers" data-to="state" points="1037,600 1028,595.5 1028,604.5"/>
<path class="ca-edge" data-from="workers" data-to="events" d="M611,615 L745.4,615 L745.4,668 L811,668"/>
<polygon class="ca-arrow" data-from="workers" data-to="events" points="817,668 808,663.5 808,672.5"/>
<text class="ca-edge-label" data-from="workers" data-to="events" x="705.1" y="608" text-anchor="middle">job done</text>
<path class="ca-edge" data-from="repo" data-to="build" d="M397,248 L525,248"/>
<polygon class="ca-arrow" data-from="repo" data-to="build" points="531,248 522,243.5 522,252.5"/>
<text class="ca-edge-label" data-from="repo" data-to="build" x="464" y="241" text-anchor="middle">push</text>
<path class="ca-edge" data-from="build" data-to="deploy" d="M587,248 L715,248"/>
<polygon class="ca-arrow" data-from="build" data-to="deploy" points="721,248 712,243.5 712,252.5"/>
<text class="ca-edge-label" data-from="build" data-to="deploy" x="654" y="241" text-anchor="middle">artifact</text>
<path class="ca-edge" data-from="deploy" data-to="infra-code" d="M777,248 L905,248"/>
<polygon class="ca-arrow" data-from="deploy" data-to="infra-code" points="911,248 902,243.5 902,252.5"/>
<text class="ca-edge-label" data-from="deploy" data-to="infra-code" x="844" y="241" text-anchor="middle">applies</text>
<g class="node" data-id="producers" data-capability="client" data-stage="users">
<rect class="ca-node-box" x="24" y="502" width="150" height="110" rx="4"/>
<g fill="#545B64"><circle cx="99" cy="519.6" r="9.6"/><path d="M80.8,556 Q80.8,534.4 99,534.4 Q117.2,534.4 117.2,556 Z"/></g>
<text class="ca-service" x="99" y="572" text-anchor="middle">Apps and partners</text>
</g>
<g class="node" data-id="api" data-capability="api-gateway" data-stage="serve">
<rect class="ca-node-box" x="288" y="502" width="150" height="110" rx="4"/>
<rect x="339" y="508" width="48" height="48" rx="4" fill="#E7157B"/><text class="ca-badge" x="363" y="536.5" text-anchor="middle">APIG</text>
<text class="ca-service" x="363" y="572" text-anchor="middle">Amazon API Gateway</text>
<text class="ca-label" x="363" y="587" text-anchor="middle">Ingest API</text>
</g>
<g class="node" data-id="ingest" data-capability="serverless-function" data-stage="run">
<rect class="ca-node-box" x="508" y="434" width="150" height="110" rx="4"/>
<rect x="559" y="440" width="48" height="48" rx="4" fill="#ED7100"/><text class="ca-badge" x="583" y="468.5" text-anchor="middle">λ</text>
<text class="ca-service" x="583" y="504" text-anchor="middle">AWS Lambda</text>
<text class="ca-label" x="583" y="519" text-anchor="middle">Validate + enqueue</text>
</g>
<g class="node" data-id="queue" data-capability="message-queue" data-stage="integrate">
<rect class="ca-node-box" x="770" y="366" width="150" height="110" rx="4"/>
<rect x="821" y="372" width="48" height="48" rx="4" fill="#E7157B"/><text class="ca-badge" x="845" y="400.5" text-anchor="middle">SQS</text>
<text class="ca-service" x="845" y="436" text-anchor="middle">Amazon SQS</text>
<text class="ca-label" x="845" y="451" text-anchor="middle">Job queue</text>
</g>
<g class="node" data-id="events" data-capability="event-bus" data-stage="integrate">
<rect class="ca-node-box" x="770" y="638" width="150" height="110" rx="4"/>
<rect x="821" y="644" width="48" height="48" rx="4" fill="#E7157B"/><text class="ca-badge" x="845" y="672.5" text-anchor="middle">EB</text>
<text class="ca-service" x="845" y="708" text-anchor="middle">Amazon EventBridge</text>
<text class="ca-label" x="845" y="723" text-anchor="middle">Domain events</text>
</g>
<g class="node" data-id="workflow" data-capability="workflow" data-stage="integrate">
<rect class="ca-node-box" x="770" y="502" width="150" height="110" rx="4"/>
<rect x="821" y="508" width="48" height="48" rx="4" fill="#E7157B"/><text class="ca-badge" x="845" y="536.5" text-anchor="middle">SFN</text>
<text class="ca-service" x="845" y="572" text-anchor="middle">AWS Step Functions</text>
<text class="ca-label" x="845" y="587" text-anchor="middle">Processing steps</text>
</g>
<g class="node" data-id="workers" data-capability="serverless-function" data-stage="run">
<rect class="ca-node-box" x="508" y="570" width="150" height="110" rx="4"/>
<rect x="559" y="576" width="48" height="48" rx="4" fill="#ED7100"/><text class="ca-badge" x="583" y="604.5" text-anchor="middle">λ</text>
<text class="ca-service" x="583" y="640" text-anchor="middle">AWS Lambda</text>
<text class="ca-label" x="583" y="655" text-anchor="middle">Workers</text>
</g>
<g class="node" data-id="raw" data-capability="object-storage" data-stage="store">
<rect class="ca-node-box" x="990" y="434" width="150" height="110" rx="4"/>
<rect x="1041" y="440" width="48" height="48" rx="4" fill="#7AA116"/><text class="ca-badge" x="1065" y="468.5" text-anchor="middle">S3</text>
<text class="ca-service" x="1065" y="504" text-anchor="middle">Amazon S3</text>
<text class="ca-label" x="1065" y="519" text-anchor="middle">Raw + processed files</text>
</g>
<g class="node" data-id="state" data-capability="key-value-db" data-stage="store">
<rect class="ca-node-box" x="990" y="570" width="150" height="110" rx="4"/>
<rect x="1041" y="576" width="48" height="48" rx="4" fill="#C925D1"/><text class="ca-badge" x="1065" y="604.5" text-anchor="middle">DDB</text>
<text class="ca-service" x="1065" y="640" text-anchor="middle">Amazon DynamoDB</text>
<text class="ca-label" x="1065" y="655" text-anchor="middle">Job status</text>
</g>
<g class="node" data-id="logs" data-capability="monitoring" data-stage="operate">
<rect class="ca-node-box" x="294" y="804" width="150" height="110" rx="4"/>
<rect x="345" y="810" width="48" height="48" rx="4" fill="#E7157B"/><text class="ca-badge" x="369" y="838.5" text-anchor="middle">CW</text>
<text class="ca-service" x="369" y="874" text-anchor="middle">Amazon CloudWatch</text>
<text class="ca-label" x="369" y="889" text-anchor="middle">Logs, metrics, alarms</text>
</g>
<g class="node" data-id="repo" data-capability="source-control" data-stage="code">
<rect class="ca-node-box" x="294" y="218" width="150" height="110" rx="4"/>
<rect x="345" y="224" width="48" height="48" rx="4" fill="#3B48CC"/><text class="ca-badge" x="369" y="252.5" text-anchor="middle">GIT</text>
<text class="ca-service" x="369" y="288" text-anchor="middle">GitHub or GitLab via</text>
<text class="ca-service" x="369" y="302" text-anchor="middle">AWS CodeConnections</text>
<text class="ca-label" x="369" y="317" text-anchor="middle">App and infrastructure…</text>
<text class="ca-fidelity" x="438" y="230" text-anchor="end">partial</text>
</g>
<g class="node" data-id="build" data-capability="ci-build" data-stage="build">
<rect class="ca-node-box" x="484" y="218" width="150" height="110" rx="4"/>
<rect x="535" y="224" width="48" height="48" rx="4" fill="#3B48CC"/><text class="ca-badge" x="559" y="252.5" text-anchor="middle">CB</text>
<text class="ca-service" x="559" y="288" text-anchor="middle">AWS CodeBuild</text>
<text class="ca-label" x="559" y="303" text-anchor="middle">Build and test</text>
</g>
<g class="node" data-id="deploy" data-capability="cd-deploy" data-stage="ship">
<rect class="ca-node-box" x="674" y="218" width="150" height="110" rx="4"/>
<rect x="725" y="224" width="48" height="48" rx="4" fill="#3B48CC"/><text class="ca-badge" x="749" y="252.5" text-anchor="middle">CP</text>
<text class="ca-service" x="749" y="288" text-anchor="middle">AWS CodePipeline</text>
<text class="ca-label" x="749" y="303" text-anchor="middle">Release pipeline</text>
</g>
<g class="node" data-id="infra-code" data-capability="iac" data-stage="code">
<rect class="ca-node-box" x="864" y="218" width="150" height="110" rx="4"/>
<rect x="915" y="224" width="48" height="48" rx="4" fill="#E7157B"/><text class="ca-badge" x="939" y="252.5" text-anchor="middle">CFN</text>
<text class="ca-service" x="939" y="288" text-anchor="middle">AWS CloudFormation</text>
<text class="ca-label" x="939" y="303" text-anchor="middle">Infrastructure as code</text>
</g>
<g class="ca-step" data-step="1"><circle cx="312" cy="532" r="9"/><text x="312" y="535.8" text-anchor="middle">1</text></g>
<g class="ca-step" data-step="2"><circle cx="532" cy="464" r="9"/><text x="532" y="467.8" text-anchor="middle">2</text></g>
<g class="ca-step" data-step="3"><circle cx="1014" cy="459" r="9"/><text x="1014" y="462.8" text-anchor="middle">3</text></g>
<g class="ca-step" data-step="4"><circle cx="794" cy="396" r="9"/><text x="794" y="399.8" text-anchor="middle">4</text></g>
<g class="ca-step" data-step="5"><circle cx="304" cy="810" r="9"/><text x="304" y="813.8" text-anchor="middle">5</text></g>
<text class="ca-steps-title" x="24" y="1006">Serving a request</text>
<g class="ca-step" data-step="1"><circle cx="33" cy="1022" r="9"/><text x="33" y="1025.8" text-anchor="middle">1</text></g>
<text class="ca-steps-text" x="50" y="1026">Apps and partners → Ingest API: authenticate, throttle and route the call</text>
<g class="ca-step" data-step="2"><circle cx="33" cy="1046" r="9"/><text x="33" y="1049.8" text-anchor="middle">2</text></g>
<text class="ca-steps-text" x="50" y="1050">Ingest API → Validate + enqueue: run the function</text>
<g class="ca-step" data-step="3"><circle cx="33" cy="1070" r="9"/><text x="33" y="1073.8" text-anchor="middle">3</text></g>
<text class="ca-steps-text" x="50" y="1074">Validate + enqueue → Raw + processed files: store the upload</text>
<g class="ca-step" data-step="4"><circle cx="627" cy="1022" r="9"/><text x="627" y="1025.8" text-anchor="middle">4</text></g>
<text class="ca-steps-text" x="644" y="1026">Validate + enqueue → Job queue: queue the job</text>
<g class="ca-step" data-step="5"><circle cx="627" cy="1046" r="9"/><text x="627" y="1049.8" text-anchor="middle">5</text></g>
<text class="ca-steps-text" x="644" y="1050">Every component → Logs, metrics, alarms: send logs and metrics</text>
<text class="ca-footer" x="24" y="1128">Generated by Clarchy. Service names belong to their owners; Clarchy is not affiliated with AWS.</text>
</svg>
