<svg xmlns="http://www.w3.org/2000/svg" class="ca-diagram ca-aws" width="1492" height="1454" viewBox="0 0 1492 1454" role="img" data-body-top="80" data-body-bottom="1426" data-drawing-bottom="1220" aria-label="Microservices on Kubernetes on AWS">
<style>.ca-aws{font-family:'Amazon Ember', 'Helvetica Neue', Arial, sans-serif}
.ca-aws .ca-bg{fill:#ffffff}
.ca-aws .ca-title{font-size:18px;font-weight:700;fill:#232F3E}
.ca-aws .ca-subtitle{font-size:13px;fill:#545B64}
.ca-aws .ca-group-label{font-size:12px;font-weight:600;fill:#232F3E}
.ca-aws .ca-badge{font-size:13px;font-weight:700;fill:#ffffff}
.ca-aws .ca-service{font-size:12px;font-weight:600;fill:#232F3E}
.ca-aws .ca-label{font-size:11px;fill:#545B64}
.ca-aws .ca-fidelity{font-size:10px;font-style:italic;fill:#b0084d}
.ca-aws .ca-edge{fill:none;stroke:#232F3E;stroke-width:1.5;stroke-linejoin:round}
.ca-aws .ca-arrow{fill:#232F3E}
.ca-aws .ca-edge-label{font-size:11px;fill:#232F3E;paint-order:stroke;stroke:#ffffff;stroke-width:4;stroke-linejoin:round}
.ca-aws .ca-step circle{fill:#232F3E;stroke:#ffffff;stroke-width:1.5}
.ca-aws .ca-step text{font-size:11px;font-weight:700;fill:#ffffff}
.ca-aws .ca-steps-title{font-size:13px;font-weight:700;fill:#232F3E}
.ca-aws .ca-steps-text{font-size:12px;fill:#232F3E}
.ca-aws .ca-footer{font-size:10px;fill:#879196}
.ca-aws .ca-node-box{fill:transparent;stroke:transparent;stroke-width:1.5}
.ca-aws .ca-group-cloud{fill:none;stroke:#232F3E}
.ca-aws .ca-group-cloud-label{fill:#232F3E;font-weight:600}
.ca-aws .ca-group-region{fill:none;stroke:#00A4A6;stroke-dasharray:6 4}
.ca-aws .ca-group-region-label{fill:#147EBA;font-weight:600}
.ca-aws .ca-group-vpc{fill:none;stroke:#8C4FFF}
.ca-aws .ca-group-vpc-label{fill:#8C4FFF;font-weight:600}
.ca-aws .ca-group-public{fill:#F2F6E8;stroke:none}
.ca-aws .ca-group-public-label{fill:#248814;font-weight:600}
.ca-aws .ca-group-private{fill:#E6F6F7;stroke:none}
.ca-aws .ca-group-private-label{fill:#147EBA;font-weight:600}
.ca-aws .ca-group-generic{fill:none;stroke:#7D8998;stroke-dasharray:6 4}
.ca-aws .ca-group-generic-label{fill:#5A6C86;font-weight:600}</style>
<rect class="ca-bg" width="1492" height="1454"/>
<text class="ca-title" x="24" y="36">Microservices on Kubernetes on AWS</text>
<text class="ca-subtitle" x="24" y="56">Containerised microservices on a managed Kubernetes cluster, with queue-driven workers that scale on backlog and a GitOps release flow.</text>
<rect class="ca-group ca-group-cloud" x="244" y="104" width="1224" height="1108" rx="0"/>
<rect x="244" y="104" width="32" height="32" fill="#232F3E"/>
<text class="ca-group-label ca-group-cloud-label" x="284" y="125">AWS Cloud</text>
<rect class="ca-group ca-group-region" x="486" y="146" width="960" height="1044" rx="0"/>
<rect x="486" y="146" width="32" height="32" fill="#00A4A6"/>
<text class="ca-group-label ca-group-region-label" x="526" y="167">Ireland (eu-west-1)</text>
<rect class="ca-group ca-group-generic" x="500" y="188" width="932" height="152" rx="0"/>
<text class="ca-group-label ca-group-generic-label" x="512" y="209">Build and deploy</text>
<rect class="ca-group ca-group-vpc" x="508" y="502" width="912" height="488" rx="0"/>
<rect x="508" y="502" width="32" height="32" fill="#8C4FFF"/>
<text class="ca-group-label ca-group-vpc-label" x="548" y="523">VPC</text>
<rect class="ca-group ca-group-public" x="524" y="544" width="178" height="430" rx="0"/>
<rect x="524" y="544" width="32" height="32" fill="#248814"/>
<text class="ca-group-label ca-group-public-label" x="564" y="565">Public subnet</text>
<rect class="ca-group ca-group-private" x="744" y="544" width="660" height="430" rx="0"/>
<rect x="744" y="544" width="32" height="32" fill="#147EBA"/>
<text class="ca-group-label ca-group-private-label" x="784" y="565">Private subnet</text>
<rect class="ca-group ca-group-generic" x="500" y="1016" width="932" height="152" rx="0"/>
<text class="ca-group-label ca-group-generic-label" x="512" y="1037">Shared services</text>
<path class="ca-edge" data-from="shoppers" data-to="dns" d="M127,739 L208.7,739 L208.7,676 L307,676"/>
<polygon class="ca-arrow" data-from="shoppers" data-to="dns" points="313,676 304,671.5 304,680.5"/>
<path class="ca-edge" data-from="shoppers" data-to="firewall" d="M127,749 L231.3,749 L231.3,812 L307,812"/>
<polygon class="ca-arrow" data-from="shoppers" data-to="firewall" points="313,812 304,807.5 304,816.5"/>
<path class="ca-edge" data-from="firewall" data-to="ingress" d="M369,812 L477,812 L477,744 L579,744"/>
<polygon class="ca-arrow" data-from="firewall" data-to="ingress" points="585,744 576,739.5 576,748.5"/>
<path class="ca-edge" data-from="ingress" data-to="services" d="M641,744 L723,744 L723,608 L799,608"/>
<polygon class="ca-arrow" data-from="ingress" data-to="services" points="805,608 796,603.5 796,612.5"/>
<path class="ca-edge" data-from="services" data-to="db" d="M861,613 L970.3,613 L970.3,671 L1281,671"/>
<polygon class="ca-arrow" data-from="services" data-to="db" points="1287,671 1278,666.5 1278,675.5"/>
<path class="ca-edge" data-from="services" data-to="cache" d="M861,623 L982.9,623 L982.9,812 L1281,812"/>
<polygon class="ca-arrow" data-from="services" data-to="cache" points="1287,812 1278,807.5 1278,816.5"/>
<path class="ca-edge" data-from="services" data-to="media" d="M861,593 L1205,593 L1205,396 L1281,396"/>
<polygon class="ca-arrow" data-from="services" data-to="media" points="1287,396 1278,391.5 1278,400.5"/>
<path class="ca-edge" data-from="services" data-to="orders" d="M861,603 L932.6,603 L932.6,386 L1061,386"/>
<polygon class="ca-arrow" data-from="services" data-to="orders" points="1067,386 1058,381.5 1058,390.5"/>
<path class="ca-edge" data-from="orders" data-to="workers" d="M1067,396 L945.1,396 L945.1,739 L867,739"/>
<polygon class="ca-arrow" data-from="orders" data-to="workers" points="861,739 870,734.5 870,743.5"/>
<path class="ca-edge" data-from="workers" data-to="db" d="M861,749 L995.4,749 L995.4,681 L1281,681"/>
<polygon class="ca-arrow" data-from="workers" data-to="db" points="1287,681 1278,676.5 1278,685.5"/>
<path class="ca-edge" data-from="repo" data-to="build" d="M617,248 L745,248"/>
<polygon class="ca-arrow" data-from="repo" data-to="build" points="751,248 742,243.5 742,252.5"/>
<text class="ca-edge-label" data-from="repo" data-to="build" x="684" y="241" text-anchor="middle">push</text>
<path class="ca-edge" data-from="build" data-to="registry" d="M807,248 L935,248"/>
<polygon class="ca-arrow" data-from="build" data-to="registry" points="941,248 932,243.5 932,252.5"/>
<text class="ca-edge-label" data-from="build" data-to="registry" x="874" y="241" text-anchor="middle">image</text>
<path class="ca-edge" data-from="registry" data-to="deploy" d="M997,248 L1125,248"/>
<polygon class="ca-arrow" data-from="registry" data-to="deploy" points="1131,248 1122,243.5 1122,252.5"/>
<path class="ca-edge" data-from="deploy" data-to="infra-code" d="M1187,248 L1315,248"/>
<polygon class="ca-arrow" data-from="deploy" data-to="infra-code" points="1321,248 1312,243.5 1312,252.5"/>
<text class="ca-edge-label" data-from="deploy" data-to="infra-code" x="1254" y="241" text-anchor="middle">applies</text>
<path class="ca-edge" data-from="orders" data-to="autoscaler" d="M1067,406 L957.7,406 L957.7,880 L867,880"/>
<polygon class="ca-arrow" data-from="orders" data-to="autoscaler" points="861,880 870,875.5 870,884.5"/>
<text class="ca-edge-label" data-from="orders" data-to="autoscaler" x="990.5" y="399" text-anchor="middle">backlog</text>
<path class="ca-edge" data-from="autoscaler" data-to="workers" d="M833,852 L833,830"/>
<polygon class="ca-arrow" data-from="autoscaler" data-to="workers" points="833,824 828.5,833 837.5,833"/>
<text class="ca-edge-label" data-from="autoscaler" data-to="workers" x="840" y="842" text-anchor="start">scales</text>
<g class="node" data-id="shoppers" data-capability="client" data-stage="users">
<rect class="ca-node-box" x="24" y="714" width="150" height="110" rx="4"/>
<g fill="#545B64"><circle cx="99" cy="731.6" r="9.6"/><path d="M80.8,768 Q80.8,746.4 99,746.4 Q117.2,746.4 117.2,768 Z"/></g>
<text class="ca-service" x="99" y="784" text-anchor="middle">Web and mobile clients</text>
</g>
<g class="node" data-id="dns" data-capability="dns" data-stage="serve">
<rect class="ca-node-box" x="266" y="646" width="150" height="110" rx="4"/>
<rect x="317" y="652" width="48" height="48" rx="4" fill="#8C4FFF"/><text class="ca-badge" x="341" y="680.5" text-anchor="middle">R53</text>
<text class="ca-service" x="341" y="716" text-anchor="middle">Amazon Route 53</text>
<text class="ca-label" x="341" y="731" text-anchor="middle">Domain</text>
</g>
<g class="node" data-id="firewall" data-capability="waf" data-stage="serve">
<rect class="ca-node-box" x="266" y="782" width="150" height="110" rx="4"/>
<rect x="317" y="788" width="48" height="48" rx="4" fill="#DD344C"/><text class="ca-badge" x="341" y="816.5" text-anchor="middle">WAF</text>
<text class="ca-service" x="341" y="852" text-anchor="middle">AWS WAF</text>
<text class="ca-label" x="341" y="867" text-anchor="middle">Web firewall</text>
</g>
<g class="node" data-id="ingress" data-capability="load-balancer" data-stage="serve">
<rect class="ca-node-box" x="538" y="714" width="150" height="110" rx="4"/>
<rect x="589" y="720" width="48" height="48" rx="4" fill="#8C4FFF"/><text class="ca-badge" x="613" y="748.5" text-anchor="middle">ALB</text>
<text class="ca-service" x="613" y="784" text-anchor="middle">Application Load</text>
<text class="ca-service" x="613" y="798" text-anchor="middle">Balancer</text>
<text class="ca-label" x="613" y="813" text-anchor="middle">Cluster ingress</text>
</g>
<g class="node" data-id="services" data-capability="kubernetes" data-stage="run">
<rect class="ca-node-box" x="758" y="578" width="150" height="110" rx="4"/>
<rect x="809" y="584" width="48" height="48" rx="4" fill="#ED7100"/><text class="ca-badge" x="833" y="612.5" text-anchor="middle">EKS</text>
<text class="ca-service" x="833" y="648" text-anchor="middle">Amazon EKS</text>
<text class="ca-label" x="833" y="663" text-anchor="middle">API microservices</text>
</g>
<g class="node" data-id="orders" data-capability="message-queue" data-stage="integrate">
<rect class="ca-node-box" x="1020" y="366" width="150" height="110" rx="4"/>
<rect x="1071" y="372" width="48" height="48" rx="4" fill="#E7157B"/><text class="ca-badge" x="1095" y="400.5" text-anchor="middle">SQS</text>
<text class="ca-service" x="1095" y="436" text-anchor="middle">Amazon SQS</text>
<text class="ca-label" x="1095" y="451" text-anchor="middle">Order queue</text>
</g>
<g class="node" data-id="workers" data-capability="kubernetes" data-stage="run">
<rect class="ca-node-box" x="758" y="714" width="150" height="110" rx="4"/>
<rect x="809" y="720" width="48" height="48" rx="4" fill="#ED7100"/><text class="ca-badge" x="833" y="748.5" text-anchor="middle">EKS</text>
<text class="ca-service" x="833" y="784" text-anchor="middle">Amazon EKS</text>
<text class="ca-label" x="833" y="799" text-anchor="middle">Order workers</text>
</g>
<g class="node" data-id="db" data-capability="relational-db" data-stage="store">
<rect class="ca-node-box" x="1240" y="646" width="150" height="110" rx="4"/>
<rect x="1291" y="652" width="48" height="48" rx="4" fill="#C925D1"/><text class="ca-badge" x="1315" y="680.5" text-anchor="middle">RDS</text>
<text class="ca-service" x="1315" y="716" text-anchor="middle">Amazon RDS for</text>
<text class="ca-service" x="1315" y="730" text-anchor="middle">PostgreSQL</text>
<text class="ca-label" x="1315" y="745" text-anchor="middle">Orders and catalogue</text>
</g>
<g class="node" data-id="cache" data-capability="cache" data-stage="store">
<rect class="ca-node-box" x="1240" y="782" width="150" height="110" rx="4"/>
<rect x="1291" y="788" width="48" height="48" rx="4" fill="#C925D1"/><text class="ca-badge" x="1315" y="816.5" text-anchor="middle">EC</text>
<text class="ca-service" x="1315" y="852" text-anchor="middle">Amazon ElastiCache</text>
<text class="ca-service" x="1315" y="866" text-anchor="middle">(Redis OSS / Valkey)</text>
<text class="ca-label" x="1315" y="881" text-anchor="middle">Sessions and hot catalogue</text>
</g>
<g class="node" data-id="media" data-capability="object-storage" data-stage="store">
<rect class="ca-node-box" x="1240" y="366" width="150" height="110" rx="4"/>
<rect x="1291" y="372" width="48" height="48" rx="4" fill="#7AA116"/><text class="ca-badge" x="1315" y="400.5" text-anchor="middle">S3</text>
<text class="ca-service" x="1315" y="436" text-anchor="middle">Amazon S3</text>
<text class="ca-label" x="1315" y="451" text-anchor="middle">Product images</text>
</g>
<g class="node" data-id="auth" data-capability="identity" data-stage="operate">
<rect class="ca-node-box" x="514" y="1046" width="150" height="110" rx="4"/>
<rect x="565" y="1052" width="48" height="48" rx="4" fill="#DD344C"/><text class="ca-badge" x="589" y="1080.5" text-anchor="middle">COG</text>
<text class="ca-service" x="589" y="1116" text-anchor="middle">Amazon Cognito</text>
<text class="ca-label" x="589" y="1131" text-anchor="middle">Customer accounts</text>
</g>
<g class="node" data-id="secrets" data-capability="secrets" data-stage="operate">
<rect class="ca-node-box" x="704" y="1046" width="150" height="110" rx="4"/>
<rect x="755" y="1052" width="48" height="48" rx="4" fill="#DD344C"/><text class="ca-badge" x="779" y="1080.5" text-anchor="middle">SM</text>
<text class="ca-service" x="779" y="1116" text-anchor="middle">AWS Secrets Manager</text>
<text class="ca-label" x="779" y="1131" text-anchor="middle">Service credentials</text>
</g>
<g class="node" data-id="logs" data-capability="monitoring" data-stage="operate">
<rect class="ca-node-box" x="894" y="1046" width="150" height="110" rx="4"/>
<rect x="945" y="1052" width="48" height="48" rx="4" fill="#E7157B"/><text class="ca-badge" x="969" y="1080.5" text-anchor="middle">CW</text>
<text class="ca-service" x="969" y="1116" text-anchor="middle">Amazon CloudWatch</text>
<text class="ca-label" x="969" y="1131" text-anchor="middle">Logs, metrics, traces</text>
</g>
<g class="node" data-id="repo" data-capability="source-control" data-stage="code">
<rect class="ca-node-box" x="514" y="218" width="150" height="110" rx="4"/>
<rect x="565" y="224" width="48" height="48" rx="4" fill="#3B48CC"/><text class="ca-badge" x="589" y="252.5" text-anchor="middle">GIT</text>
<text class="ca-service" x="589" y="288" text-anchor="middle">GitHub or GitLab via</text>
<text class="ca-service" x="589" y="302" text-anchor="middle">AWS CodeConnections</text>
<text class="ca-label" x="589" y="317" text-anchor="middle">App and infrastructure…</text>
<text class="ca-fidelity" x="658" y="230" text-anchor="end">partial</text>
</g>
<g class="node" data-id="build" data-capability="ci-build" data-stage="build">
<rect class="ca-node-box" x="704" y="218" width="150" height="110" rx="4"/>
<rect x="755" y="224" width="48" height="48" rx="4" fill="#3B48CC"/><text class="ca-badge" x="779" y="252.5" text-anchor="middle">CB</text>
<text class="ca-service" x="779" y="288" text-anchor="middle">AWS CodeBuild</text>
<text class="ca-label" x="779" y="303" text-anchor="middle">Build and test</text>
</g>
<g class="node" data-id="registry" data-capability="container-registry" data-stage="ship">
<rect class="ca-node-box" x="894" y="218" width="150" height="110" rx="4"/>
<rect x="945" y="224" width="48" height="48" rx="4" fill="#ED7100"/><text class="ca-badge" x="969" y="252.5" text-anchor="middle">ECR</text>
<text class="ca-service" x="969" y="288" text-anchor="middle">Amazon ECR</text>
<text class="ca-label" x="969" y="303" text-anchor="middle">Container images</text>
</g>
<g class="node" data-id="deploy" data-capability="cd-deploy" data-stage="ship">
<rect class="ca-node-box" x="1084" y="218" width="150" height="110" rx="4"/>
<rect x="1135" y="224" width="48" height="48" rx="4" fill="#3B48CC"/><text class="ca-badge" x="1159" y="252.5" text-anchor="middle">CP</text>
<text class="ca-service" x="1159" y="288" text-anchor="middle">AWS CodePipeline</text>
<text class="ca-label" x="1159" y="303" text-anchor="middle">GitOps release</text>
</g>
<g class="node" data-id="infra-code" data-capability="iac" data-stage="code">
<rect class="ca-node-box" x="1274" y="218" width="150" height="110" rx="4"/>
<rect x="1325" y="224" width="48" height="48" rx="4" fill="#E7157B"/><text class="ca-badge" x="1349" y="252.5" text-anchor="middle">CFN</text>
<text class="ca-service" x="1349" y="288" text-anchor="middle">AWS CloudFormation</text>
<text class="ca-label" x="1349" y="303" text-anchor="middle">Infrastructure as code</text>
</g>
<g class="node" data-id="autoscaler" data-capability="event-autoscaling" data-stage="run">
<rect class="ca-node-box" x="758" y="850" width="150" height="110" rx="4"/>
<rect x="809" y="856" width="48" height="48" rx="4" fill="#ED7100"/><text class="ca-badge" x="833" y="884.5" text-anchor="middle">KEDA</text>
<text class="ca-service" x="833" y="920" text-anchor="middle">KEDA on Amazon EKS</text>
<text class="ca-label" x="833" y="935" text-anchor="middle">Scale on backlog</text>
<text class="ca-fidelity" x="902" y="862" text-anchor="end">close</text>
</g>
<g class="ca-step" data-step="1"><circle cx="290" cy="676" r="9"/><text x="290" y="679.8" text-anchor="middle">1</text></g>
<g class="ca-step" data-step="2"><circle cx="290" cy="812" r="9"/><text x="290" y="815.8" text-anchor="middle">2</text></g>
<g class="ca-step" data-step="3"><circle cx="562" cy="744" r="9"/><text x="562" y="747.8" text-anchor="middle">3</text></g>
<g class="ca-step" data-step="4"><circle cx="782" cy="608" r="9"/><text x="782" y="611.8" text-anchor="middle">4</text></g>
<g class="ca-step" data-step="5"><circle cx="1264" cy="671" r="9"/><text x="1264" y="674.8" text-anchor="middle">5</text></g>
<g class="ca-step" data-step="6"><circle cx="1264" cy="812" r="9"/><text x="1264" y="815.8" text-anchor="middle">6</text></g>
<g class="ca-step" data-step="7"><circle cx="1264" cy="396" r="9"/><text x="1264" y="399.8" text-anchor="middle">7</text></g>
<g class="ca-step" data-step="8"><circle cx="1044" cy="386" r="9"/><text x="1044" y="389.8" text-anchor="middle">8</text></g>
<g class="ca-step" data-step="9"><circle cx="524" cy="1052" r="9"/><text x="524" y="1055.8" text-anchor="middle">9</text></g>
<g class="ca-step" data-step="10"><circle cx="714" cy="1052" r="9"/><text x="714" y="1055.8" text-anchor="middle">10</text></g>
<g class="ca-step" data-step="11"><circle cx="904" cy="1052" r="9"/><text x="904" y="1055.8" text-anchor="middle">11</text></g>
<text class="ca-steps-title" x="24" y="1248">Serving a request</text>
<g class="ca-step" data-step="1"><circle cx="33" cy="1264" r="9"/><text x="33" y="1267.8" text-anchor="middle">1</text></g>
<text class="ca-steps-text" x="50" y="1268">Web and mobile clients → Domain: look up the app's address</text>
<g class="ca-step" data-step="2"><circle cx="33" cy="1288" r="9"/><text x="33" y="1291.8" text-anchor="middle">2</text></g>
<text class="ca-steps-text" x="50" y="1292">Web and mobile clients → Web firewall: filter malicious traffic (HTTPS)</text>
<g class="ca-step" data-step="3"><circle cx="33" cy="1312" r="9"/><text x="33" y="1315.8" text-anchor="middle">3</text></g>
<text class="ca-steps-text" x="50" y="1316">Web firewall → Cluster ingress: spread requests across healthy instances</text>
<g class="ca-step" data-step="4"><circle cx="33" cy="1336" r="9"/><text x="33" y="1339.8" text-anchor="middle">4</text></g>
<text class="ca-steps-text" x="50" y="1340">Cluster ingress → API microservices: run the business logic</text>
<g class="ca-step" data-step="5"><circle cx="33" cy="1360" r="9"/><text x="33" y="1363.8" text-anchor="middle">5</text></g>
<text class="ca-steps-text" x="50" y="1364">API microservices → Orders and catalogue: read and write records</text>
<g class="ca-step" data-step="6"><circle cx="33" cy="1384" r="9"/><text x="33" y="1387.8" text-anchor="middle">6</text></g>
<text class="ca-steps-text" x="50" y="1388">API microservices → Sessions and hot catalogue: read and refresh cached results</text>
<g class="ca-step" data-step="7"><circle cx="769" cy="1264" r="9"/><text x="769" y="1267.8" text-anchor="middle">7</text></g>
<text class="ca-steps-text" x="786" y="1268">API microservices → Product images: store or read files</text>
<g class="ca-step" data-step="8"><circle cx="769" cy="1288" r="9"/><text x="769" y="1291.8" text-anchor="middle">8</text></g>
<text class="ca-steps-text" x="786" y="1292">API microservices → Order queue: queue the job (new order)</text>
<g class="ca-step" data-step="9"><circle cx="769" cy="1312" r="9"/><text x="769" y="1315.8" text-anchor="middle">9</text></g>
<text class="ca-steps-text" x="786" y="1316">API microservices → Customer accounts: verify the user's sign-in token</text>
<g class="ca-step" data-step="10"><circle cx="769" cy="1336" r="9"/><text x="769" y="1339.8" text-anchor="middle">10</text></g>
<text class="ca-steps-text" x="786" y="1340">API microservices → Service credentials: fetch credentials</text>
<g class="ca-step" data-step="11"><circle cx="769" cy="1360" r="9"/><text x="769" y="1363.8" text-anchor="middle">11</text></g>
<text class="ca-steps-text" x="786" y="1364">Every component → Logs, metrics, traces: send logs and metrics</text>
<text class="ca-footer" x="24" y="1442">Generated by Clarchy. Service names belong to their owners; Clarchy is not affiliated with AWS.</text>
</svg>
